<svg id="svg" version="1.1" xmlns="http://www.w3.org/2000/svg" xmlns:xlink="http://www.w3.org/1999/xlink" width="400" height="400" viewBox="0, 0, 400,400"><g id="svgg"><path id="path0" d="M181.146 36.626 C 185.743 45.516,185.936 58.083,181.666 70.459 C 177.233 83.306,170.512 94.434,151.039 121.167 C 131.865 147.487,124.282 159.867,119.037 173.411 C 105.940 207.229,119.082 234.595,160.333 259.405 C 165.017 262.222,173.748 267.001,174.202 266.997 C 174.366 266.996,175.308 264.933,176.295 262.414 C 180.226 252.380,184.035 245.314,190.408 236.230 C 192.056 233.881,193.351 231.911,193.285 231.852 C 193.220 231.793,191.892 231.108,190.333 230.330 C 162.959 216.663,151.380 199.589,154.844 178.000 C 156.691 166.491,160.523 157.215,174.354 130.773 C 190.578 99.757,195.120 86.242,195.152 68.879 L 195.167 61.258 196.956 63.213 C 229.251 98.487,252.663 147.224,250.016 173.667 C 248.128 192.521,242.402 201.735,216.660 227.333 C 202.363 241.551,199.064 245.225,194.512 252.000 C 179.833 273.847,173.226 311.770,176.015 358.167 C 176.213 361.467,176.436 364.354,176.511 364.583 C 176.636 364.971,226.667 365.262,226.667 364.875 C 226.667 364.806,226.162 363.641,225.544 362.287 C 212.065 332.709,214.837 291.547,232.030 265.957 C 236.587 259.175,241.391 253.696,254.594 240.221 C 274.932 219.466,282.145 209.662,286.272 197.167 C 301.540 150.942,255.206 78.277,184.601 37.715 C 180.492 35.354,180.487 35.353,181.146 36.626 M125.482 249.902 C 126.036 251.335,128.434 261.611,129.337 266.420 C 137.038 307.449,130.125 340.466,109.377 361.750 L 106.209 365.000 135.490 365.000 L 164.771 365.000 164.577 354.309 C 164.074 326.581,166.404 297.016,170.506 279.090 C 170.660 278.416,170.060 278.039,164.006 275.011 C 150.688 268.350,145.193 264.823,131.375 254.070 C 128.007 251.448,125.355 249.573,125.482 249.902 M253.800 258.048 C 225.902 280.218,219.630 329.693,240.614 362.078 L 242.500 364.990 268.282 364.995 L 294.064 365.000 290.615 362.727 C 261.444 343.501,257.339 308.464,280.179 273.648 C 282.551 270.032,282.581 269.960,281.880 269.528 C 280.872 268.907,256.662 256.000,256.506 256.000 C 256.435 256.000,255.218 256.921,253.800 258.048 " stroke="none" fill="#fcfbfb" fill-rule="evenodd"></path><path id="path1" d="M185.167 0.354 C 92.735 7.867,17.998 75.850,2.698 166.333 C -16.751 281.358,64.782 388.005,180.970 399.517 C 188.464 400.260,216.268 400.059,223.000 399.214 C 299.480 389.611,362.263 340.109,388.359 268.833 C 403.282 228.076,404.244 180.173,390.964 139.114 C 366.237 62.662,301.181 9.930,220.333 0.808 C 214.693 0.172,191.150 -0.132,185.167 0.354 M182.968 36.554 C 250.038 73.778,298.241 144.642,288.138 191.167 C 284.802 206.527,277.709 216.908,253.969 241.169 C 234.156 261.417,228.176 269.794,223.193 284.281 C 214.171 310.507,215.318 338.418,226.459 363.750 L 227.009 365.000 201.714 365.000 L 176.419 365.000 176.217 363.417 C 173.615 343.018,175.856 304.958,180.873 284.333 C 186.748 260.181,192.464 251.089,217.337 226.333 C 241.478 202.305,247.070 193.579,249.525 176.100 C 252.751 153.124,238.091 116.753,211.192 81.000 C 206.066 74.187,197.406 63.638,195.944 62.426 C 195.577 62.121,195.498 63.190,195.487 68.612 C 195.450 86.309,190.758 99.905,172.921 134.000 C 159.790 159.101,155.917 169.142,154.638 181.397 C 152.618 200.762,164.378 217.005,189.583 229.667 C 191.829 230.795,193.667 231.790,193.667 231.879 C 193.667 231.967,192.510 233.643,191.096 235.603 C 184.748 244.403,180.900 251.443,176.667 262.000 C 175.527 264.842,174.544 267.221,174.482 267.288 C 174.062 267.738,159.121 259.105,152.000 254.298 C 114.043 228.676,104.947 200.657,122.822 164.411 C 128.809 152.269,133.974 144.323,152.024 119.480 C 183.161 76.625,189.931 57.944,181.537 38.041 C 180.909 36.552,180.479 35.333,180.582 35.333 C 180.685 35.333,181.759 35.882,182.968 36.554 M129.122 252.085 C 142.848 263.003,151.207 268.437,164.546 275.108 L 170.926 278.299 170.469 280.476 C 166.415 299.820,164.374 325.482,164.777 352.083 L 164.972 365.000 135.441 365.000 L 105.910 365.000 109.539 361.250 C 132.360 337.662,138.261 298.227,125.874 252.078 C 125.363 250.172,125.196 249.081,125.439 249.229 C 125.656 249.361,127.313 250.646,129.122 252.085 M273.489 264.788 C 283.591 270.197,283.121 269.783,281.579 271.917 C 277.368 277.745,272.178 288.050,269.665 295.573 C 260.274 323.692,267.886 347.672,290.986 362.732 L 294.471 365.004 268.341 364.919 L 242.211 364.833 240.614 362.500 C 227.726 343.660,224.346 313.638,232.400 289.547 C 236.799 276.391,244.159 265.475,253.809 257.794 L 256.451 255.692 260.475 257.833 C 262.689 259.010,268.545 262.140,273.489 264.788 " stroke="none" fill="#f4941b" fill-rule="evenodd"></path><path id="path2" d="M224.826 219.083 L 221.833 222.167 224.917 219.174 C 226.612 217.527,228.000 216.140,228.000 216.090 C 228.000 215.848,227.606 216.220,224.826 219.083 M209.661 233.917 L 206.167 237.500 209.750 234.006 C 211.721 232.084,213.333 230.472,213.333 230.423 C 213.333 230.182,212.906 230.588,209.661 233.917 M250.821 244.083 L 249.167 245.833 250.917 244.179 C 251.879 243.269,252.667 242.482,252.667 242.429 C 252.667 242.180,252.358 242.457,250.821 244.083 M164.744 361.333 C 164.744 361.975,164.813 362.238,164.896 361.917 C 164.980 361.596,164.980 361.071,164.896 360.750 C 164.813 360.429,164.744 360.692,164.744 361.333 " stroke="none" fill="#fcbf78" fill-rule="evenodd"></path><path id="path3" d="M184.744 53.333 C 184.744 53.975,184.813 54.237,184.896 53.917 C 184.980 53.596,184.980 53.071,184.896 52.750 C 184.813 52.429,184.744 52.692,184.744 53.333 M195.448 68.500 C 195.449 69.967,195.507 70.525,195.578 69.741 C 195.648 68.957,195.647 67.757,195.576 67.075 C 195.504 66.392,195.446 67.033,195.448 68.500 M238.167 79.000 C 239.809 80.650,241.228 82.000,241.319 82.000 C 241.411 82.000,240.142 80.650,238.500 79.000 C 236.858 77.350,235.439 76.000,235.347 76.000 C 235.256 76.000,236.524 77.350,238.167 79.000 M250.118 169.167 C 250.117 170.817,250.174 171.534,250.244 170.760 C 250.313 169.986,250.314 168.636,250.245 167.760 C 250.177 166.884,250.119 167.517,250.118 169.167 M289.077 176.000 C 289.077 176.642,289.146 176.904,289.230 176.583 C 289.314 176.262,289.314 175.737,289.230 175.417 C 289.146 175.096,289.077 175.358,289.077 176.000 M289.077 182.333 C 289.077 182.975,289.146 183.237,289.230 182.917 C 289.314 182.596,289.314 182.071,289.230 181.750 C 289.146 181.429,289.077 181.692,289.077 182.333 M166.667 214.167 C 167.662 215.175,168.552 216.000,168.644 216.000 C 168.736 216.000,167.996 215.175,167.000 214.167 C 166.004 213.158,165.114 212.333,165.023 212.333 C 164.931 212.333,165.671 213.158,166.667 214.167 M219.989 223.917 L 218.167 225.833 220.083 224.011 C 221.864 222.319,222.153 222.000,221.905 222.000 C 221.853 222.000,220.991 222.862,219.989 223.917 M262.333 232.167 C 261.524 232.992,260.936 233.667,261.028 233.667 C 261.120 233.667,261.857 232.992,262.667 232.167 C 263.476 231.342,264.064 230.667,263.972 230.667 C 263.880 230.667,263.143 231.342,262.333 232.167 M130.333 236.104 C 130.333 236.162,130.821 236.649,131.417 237.188 L 132.500 238.167 131.521 237.083 C 130.608 236.074,130.333 235.847,130.333 236.104 M134.333 240.104 C 134.333 240.162,134.821 240.649,135.417 241.188 L 136.500 242.167 135.521 241.083 C 134.608 240.074,134.333 239.847,134.333 240.104 M247.667 247.167 C 246.857 247.992,246.270 248.667,246.361 248.667 C 246.453 248.667,247.190 247.992,248.000 247.167 C 248.810 246.342,249.397 245.667,249.305 245.667 C 249.214 245.667,248.476 246.342,247.667 247.167 M132.077 289.667 C 132.077 290.308,132.146 290.571,132.230 290.250 C 132.314 289.929,132.314 289.404,132.230 289.083 C 132.146 288.762,132.077 289.025,132.077 289.667 M228.091 314.333 C 228.091 315.158,228.156 315.496,228.235 315.083 C 228.315 314.671,228.315 313.996,228.235 313.583 C 228.156 313.171,228.091 313.508,228.091 314.333 M217.077 315.000 C 217.077 315.642,217.146 315.904,217.230 315.583 C 217.314 315.262,217.314 314.737,217.230 314.417 C 217.146 314.096,217.077 314.358,217.077 315.000 M228.077 320.667 C 228.077 321.308,228.146 321.571,228.230 321.250 C 228.314 320.929,228.314 320.404,228.230 320.083 C 228.146 319.762,228.077 320.025,228.077 320.667 M217.077 326.000 C 217.077 326.642,217.146 326.904,217.230 326.583 C 217.314 326.262,217.314 325.737,217.230 325.417 C 217.146 325.096,217.077 325.358,217.077 326.000 M175.429 327.833 C 175.431 328.750,175.496 329.085,175.573 328.579 C 175.649 328.072,175.647 327.322,175.568 326.912 C 175.489 326.502,175.426 326.917,175.429 327.833 M164.751 328.500 C 164.754 329.233,164.823 329.494,164.902 329.079 C 164.982 328.665,164.979 328.065,164.896 327.746 C 164.812 327.427,164.747 327.767,164.751 328.500 M164.465 344.833 C 164.465 347.400,164.518 348.406,164.581 347.069 C 164.645 345.732,164.644 343.632,164.580 342.402 C 164.516 341.173,164.464 342.267,164.465 344.833 M175.433 348.000 C 175.433 349.008,175.496 349.421,175.572 348.917 C 175.648 348.412,175.648 347.587,175.572 347.083 C 175.496 346.579,175.433 346.992,175.433 348.000 M175.744 355.667 C 175.744 356.308,175.813 356.571,175.896 356.250 C 175.980 355.929,175.980 355.404,175.896 355.083 C 175.813 354.762,175.744 355.025,175.744 355.667 M280.667 354.771 C 280.667 354.828,281.154 355.316,281.750 355.854 L 282.833 356.833 281.854 355.750 C 280.942 354.740,280.667 354.513,280.667 354.771 M164.757 363.667 C 164.757 364.492,164.822 364.829,164.902 364.417 C 164.981 364.004,164.981 363.329,164.902 362.917 C 164.822 362.504,164.757 362.842,164.757 363.667 " stroke="none" fill="#fccc96" fill-rule="evenodd"></path><path id="path4" d="M233.000 73.833 C 233.622 74.475,234.206 75.000,234.297 75.000 C 234.389 75.000,233.955 74.475,233.333 73.833 C 232.711 73.192,232.128 72.667,232.036 72.667 C 231.944 72.667,232.378 73.192,233.000 73.833 M243.000 83.771 C 243.000 83.828,243.487 84.316,244.083 84.854 L 245.167 85.833 244.188 84.750 C 243.275 83.740,243.000 83.513,243.000 83.771 M214.821 228.750 L 213.167 230.500 214.917 228.846 C 216.543 227.309,216.820 227.000,216.571 227.000 C 216.518 227.000,215.731 227.787,214.821 228.750 M255.994 238.917 L 252.500 242.500 256.083 239.006 C 259.412 235.761,259.818 235.333,259.577 235.333 C 259.528 235.333,257.916 236.946,255.994 238.917 M205.146 238.417 L 204.167 239.500 205.250 238.521 C 205.846 237.983,206.333 237.495,206.333 237.438 C 206.333 237.180,206.058 237.407,205.146 238.417 M132.091 293.333 C 132.091 294.158,132.156 294.496,132.235 294.083 C 132.315 293.671,132.315 292.996,132.235 292.583 C 132.156 292.171,132.091 292.508,132.091 293.333 M132.077 301.333 C 132.077 301.975,132.146 302.237,132.230 301.917 C 132.314 301.596,132.314 301.071,132.230 300.750 C 132.146 300.429,132.077 300.692,132.077 301.333 M217.118 320.500 C 217.117 322.150,217.174 322.867,217.244 322.093 C 217.313 321.320,217.314 319.970,217.245 319.093 C 217.177 318.217,217.119 318.850,217.118 320.500 M164.751 332.500 C 164.754 333.233,164.823 333.494,164.902 333.079 C 164.982 332.665,164.979 332.065,164.896 331.746 C 164.812 331.427,164.747 331.767,164.751 332.500 M164.762 358.833 C 164.765 359.750,164.829 360.085,164.906 359.579 C 164.982 359.072,164.980 358.322,164.901 357.912 C 164.822 357.502,164.760 357.917,164.762 358.833 M108.667 362.167 C 107.857 362.992,107.270 363.667,107.361 363.667 C 107.453 363.667,108.190 362.992,109.000 362.167 C 109.810 361.342,110.397 360.667,110.305 360.667 C 110.214 360.667,109.476 361.342,108.667 362.167 " stroke="none" fill="#f9a847" fill-rule="evenodd"></path></g></svg>