<svg viewBox="0 0 24 24" xmlns="http://www.w3.org/2000/svg"><g data-name="Layer 2"><path d="M12 8a4 4 0 1 0 4 4 4 4 0 0 0-4-4zm0 6a2 2 0 1 1 2-2 2 2 0 0 1-2 2z" fill="#ffffff" class="fill-000000"></path><path d="M3.29 20.71a4.48 4.48 0 0 0 3.28 1.19A11.8 11.8 0 0 0 12 20.26a11.8 11.8 0 0 0 5.43 1.63 4.48 4.48 0 0 0 3.27-1.19c1.24-1.24 1.52-3.42.74-6a14.62 14.62 0 0 0-1.16-2.7 14.62 14.62 0 0 0 1.17-2.74c.77-2.55.5-4.72-.74-6-1.79-1.75-5.2-1.46-8.71.46-3.51-1.92-6.92-2.21-8.71-.43C2 4.54 1.78 6.71 2.55 9.26A14.62 14.62 0 0 0 3.72 12a14.62 14.62 0 0 0-1.17 2.74c-.77 2.55-.55 4.72.74 5.97zm16.24-5.39c.54 1.79.45 3.28-.24 4s-2.86.81-5.29-.32a22 22 0 0 0 2.74-2.32A22.22 22.22 0 0 0 19 14a11.71 11.71 0 0 1 .54 1.32zM12 18a19.73 19.73 0 0 1-3.29-2.68A19.69 19.69 0 0 1 6 12a20.25 20.25 0 0 1 6-6 19.59 19.59 0 0 1 3.29 2.66A19.69 19.69 0 0 1 18 12a19.69 19.69 0 0 1-2.67 3.29A19.72 19.72 0 0 1 12 18zm5.41-13.89a2.62 2.62 0 0 1 1.88.6c.7.7.79 2.18.24 4A11.71 11.71 0 0 1 19 10a22.22 22.22 0 0 0-2.32-2.72A22.07 22.07 0 0 0 14 5a8.82 8.82 0 0 1 3.41-.89zM4.46 8.68c-.54-1.79-.45-3.28.24-4a2.62 2.62 0 0 1 1.88-.6A8.82 8.82 0 0 1 10 5a22.45 22.45 0 0 0-5 5 11.71 11.71 0 0 1-.54-1.32zm2.83 8A22 22 0 0 0 10 19c-2.47 1.1-4.5 1.09-5.33.26s-.79-2.18-.24-4A11.71 11.71 0 0 1 5 14a22.22 22.22 0 0 0 2.29 2.71z" fill="#ffffff" class="fill-000000"></path></g></svg>