<svg id="Layer_1" version="1.1" viewBox="0 0 32 32" xml:space="preserve" xmlns="http://www.w3.org/2000/svg" xmlns:xlink="http://www.w3.org/1999/xlink"><path d="M16 28a1 1 0 0 1-1-1V5a1 1 0 1 1 2 0v22a1 1 0 0 1-1 1zM11.667 26a1 1 0 0 1-1-1V7a1 1 0 1 1 2 0v18a1 1 0 0 1-1 1z" fill="#ffffff" class="fill-000000"></path><defs><path id="SVGID_1_" d="M7.333 9v14"></path></defs><use xlink:href="#SVGID_1_" overflow="visible"></use><clipPath id="SVGID_2_"><use xlink:href="#SVGID_1_" overflow="visible"></use></clipPath><path d="M7.333 24a1 1 0 0 1-1-1V9a1 1 0 1 1 2 0v14a1 1 0 0 1-1 1zM3 21a1 1 0 0 1-1-1v-8a1 1 0 1 1 2 0v8a1 1 0 0 1-1 1z" fill="#ffffff" class="fill-000000"></path><g><path d="M29 21a1 1 0 0 1-1-1v-8a1 1 0 1 1 2 0v8a1 1 0 0 1-1 1z" fill="#ffffff" class="fill-000000"></path></g><g><defs><path id="SVGID_3_" d="M24.667 9v14"></path></defs><use xlink:href="#SVGID_3_" overflow="visible"></use><clipPath id="SVGID_4_"><use xlink:href="#SVGID_3_" overflow="visible"></use></clipPath><path d="M24.667 24a1 1 0 0 1-1-1V9a1 1 0 1 1 2 0v14a1 1 0 0 1-1 1z" fill="#ffffff" class="fill-000000"></path></g><g><path d="M20.333 26a1 1 0 0 1-1-1V7a1 1 0 1 1 2 0v18a1 1 0 0 1-1 1z" fill="#ffffff" class="fill-000000"></path></g></svg>